<svg width="37" height="36" viewBox="0 0 37 36" fill="none" xmlns="http://www.w3.org/2000/svg">
<path d="M25.2986 18.5129C26.3201 18.4258 39.9872 15.1615 36.4022 14.4532C35.0723 14.8212 34.0389 14.4493 33.3739 15.4464C33.1817 14.2712 30.574 16.1468 30.1735 16.218C29.9932 15.3277 25.9075 17.6187 26.5043 16.7917C24.6497 16.8154 22.3465 17.4564 19.9512 18.2082C18.7775 17.4208 23.8086 11.8022 21.6936 13.0169C21.8418 12.7004 22.4106 11.3313 22.3345 12.2374C23.0034 11.4619 30.2856 -0.408428 27.2574 1.60162C25.2145 4.05086 23.6804 8.15406 21.95 10.1799C20.2676 10.8645 19.102 16.7442 17.2274 16.1586C16.1338 14.8371 13.3139 -1.34616 11.3111 0.0901476C11.6596 1.3484 11.3431 2.47606 12.3165 3.08145C11.1268 3.27137 13.0255 5.84723 13.0976 6.24291C12.2164 6.4091 14.4996 10.4609 13.6784 9.86733C13.6944 11.0108 13.9548 12.3324 14.3313 13.7371C13.8306 13.3612 13.2819 12.5025 12.9654 12.3759C9.59269 11.0267 7.03712 7.92454 3.52421 6.24291C0.57208 9.95833 26.6766 19.3319 10.49 20.7326C7.4457 22.6952 3.40003 22.9959 0.00328115 24.8833C-0.289128 28.9706 19.0739 17.6939 13.4861 24.1711C12.6169 26.9092 11.3271 29.9836 9.54462 32.6821C8.40703 42.9737 18.0806 15.0151 17.68 25.6826C19.0139 28.2307 20.3037 31.3012 20.9646 34.4627C25.6952 41.3158 19.2382 23.1859 18.5612 20.6179C21.1248 19.5377 31.0347 31.7879 32.8292 29.857C32.9133 29.584 31.4873 28.0685 31.0547 27.9063C30.7623 28.0527 30.6141 28.1714 30.4418 27.9023C31.3111 27.0753 28.2628 26.0308 27.9744 25.7459C28.6153 25.1168 24.3734 23.0711 25.4028 23.1027C24.6097 22.0067 23.396 20.9028 22.0141 19.7909C24.4655 19.324 25.531 17.6147 25.3067 18.505L25.2986 18.5129Z" fill="#101214"/>
</svg>
