<svg width="57" height="34" viewBox="0 0 57 34" fill="none" xmlns="http://www.w3.org/2000/svg">
    <g clip-path="url(#clip0_7035_3621)">
        <path
            d="M38.2791 29.91C38.2336 29.8512 38.1835 29.8059 38.1153 29.7698C38.047 29.7336 37.9742 29.7109 37.8878 29.7109C37.8104 29.7109 37.7376 29.72 37.6694 29.7562C37.6012 29.7833 37.5466 29.8331 37.4965 29.8874C37.4465 29.9417 37.4192 30.0095 37.3919 30.0865C37.3646 30.1634 37.3555 30.2358 37.3555 30.3217V30.3308H38.4019C38.4019 30.2539 38.3928 30.1815 38.3746 30.1046C38.3564 30.0276 38.3291 29.9643 38.2791 29.9055V29.91Z"
            fill="white"></path>
        <path
            d="M1.32617 26.4219V34.0001H55.8044V26.4219H1.32617ZM14.3065 31.7741L13.9744 30.9145H12.6959L12.382 31.7741H11.9361L13.2009 28.4578H13.4876L14.7751 31.7741H14.3065ZM16.4767 29.8241C16.3994 29.7879 16.3266 29.7653 16.2401 29.7653C16.1628 29.7653 16.0763 29.7834 16.0035 29.8332C15.9171 29.8694 15.8307 29.9372 15.7351 30.0323V31.7651H15.2983V29.3989H15.6623L15.7215 29.6658C15.7988 29.5979 15.8625 29.5436 15.9217 29.4939C15.9808 29.4577 16.0354 29.417 16.0945 29.3989C16.14 29.3808 16.1992 29.3627 16.2356 29.3536C16.2811 29.3446 16.322 29.3446 16.3675 29.3446C16.4267 29.3446 16.4813 29.3536 16.5313 29.3627C16.5768 29.3808 16.6178 29.3989 16.6542 29.4215L16.4813 29.8287L16.4767 29.8241ZM18.0509 31.7741H17.7188L16.7952 29.3989H17.2411L17.878 31.1995H17.8871L18.6014 29.3989H19.0291L18.0464 31.7741H18.0509ZM20.8217 31.756L20.7261 31.5298C20.6988 31.566 20.6488 31.5977 20.6033 31.6338C20.5578 31.661 20.4987 31.6927 20.4395 31.7198C20.3804 31.7379 20.3167 31.756 20.2484 31.7786C20.1802 31.7877 20.1074 31.7967 20.0209 31.7967C19.9163 31.7967 19.8208 31.7877 19.7343 31.7515C19.6388 31.7243 19.5614 31.6746 19.4977 31.6112C19.4295 31.5524 19.3749 31.48 19.3339 31.385C19.2975 31.2991 19.2748 31.195 19.2748 31.0819C19.2748 30.8466 19.3612 30.6566 19.5205 30.5209C19.6843 30.3897 19.9208 30.3128 20.2348 30.3037L20.6897 30.2856V30.1997C20.6897 30.1137 20.6806 30.0368 20.6534 29.9734C20.6261 29.9101 20.5942 29.8603 20.5487 29.8241C20.5123 29.7879 20.4532 29.7563 20.3986 29.7382C20.344 29.7201 20.2757 29.711 20.2075 29.711C20.1301 29.711 20.0664 29.7201 20.0073 29.7291C19.939 29.7382 19.8844 29.7563 19.8344 29.7744C19.7889 29.7925 19.7389 29.8106 19.7025 29.8422C19.6661 29.8739 19.6251 29.8875 19.5887 29.9191L19.4249 29.616C19.5023 29.5572 19.5751 29.521 19.6433 29.4848C19.7116 29.4486 19.7844 29.417 19.8526 29.3989C19.9208 29.3717 19.9845 29.3627 20.0619 29.3536C20.1301 29.3446 20.2029 29.3446 20.2803 29.3446C20.4031 29.3446 20.5169 29.3627 20.6215 29.3898C20.7261 29.417 20.8126 29.4667 20.8899 29.5301C20.9673 29.5979 21.0219 29.6794 21.0719 29.7879C21.1174 29.892 21.1402 30.0232 21.1402 30.177V31.3217C21.1402 31.4167 21.1493 31.5026 21.1493 31.5569C21.1584 31.6158 21.1675 31.6429 21.1675 31.6791C21.1675 31.7153 21.1766 31.747 21.1857 31.7651H20.8126L20.8217 31.756ZM22.9555 31.747C22.8327 31.7922 22.7189 31.8148 22.6143 31.8148C22.5187 31.8148 22.4414 31.8058 22.3777 31.7786C22.314 31.7515 22.2549 31.7198 22.2139 31.6746C22.1684 31.6293 22.1366 31.5705 22.1184 31.5117C22.1002 31.4438 22.0911 31.3805 22.0911 31.3036V29.7698H21.6998V29.3989H22.0911V28.8695L22.5369 28.7293V29.4034H23.2603L23.1193 29.7653H22.5369V31.1588C22.5369 31.2538 22.5551 31.3307 22.5961 31.376C22.637 31.4212 22.6916 31.4438 22.769 31.4438C22.8054 31.4438 22.8463 31.4348 22.8827 31.4257C22.9191 31.4167 22.9601 31.4076 22.9965 31.3895C23.0329 31.3714 23.0647 31.3624 23.092 31.3443C23.1102 31.3171 23.1375 31.3081 23.1602 31.2855L23.2922 31.5886C23.1875 31.6655 23.0829 31.7198 22.9601 31.7605L22.9555 31.747ZM25.8218 31.0909C25.7627 31.2538 25.6808 31.385 25.5761 31.4981C25.4806 31.5931 25.3669 31.67 25.2349 31.7243C25.103 31.7696 24.9574 31.8012 24.7981 31.8012C24.4842 31.8012 24.234 31.7062 24.0383 31.5162C23.9337 31.4031 23.8472 31.2719 23.7927 31.109C23.7335 30.9462 23.7062 30.7697 23.7062 30.5797C23.7062 30.3897 23.7335 30.2178 23.7927 30.0594C23.8518 29.8965 23.9337 29.7653 24.0383 29.6522C24.1339 29.5482 24.2476 29.4712 24.3796 29.4169C24.5024 29.3581 24.648 29.331 24.8072 29.331C24.9801 29.331 25.1212 29.3581 25.2531 29.4169C25.3851 29.4758 25.4988 29.5482 25.5943 29.6522C25.699 29.7653 25.7854 29.8965 25.8218 30.0503C25.881 30.1997 25.9083 30.3806 25.9083 30.5706C25.9083 30.7607 25.881 30.9326 25.8218 31.0909ZM29.7755 31.281C29.7164 31.3941 29.6436 31.48 29.548 31.5569C29.4525 31.6339 29.3388 31.6881 29.2068 31.7379C29.0749 31.7741 28.9293 31.8058 28.7791 31.8058C28.6654 31.8058 28.5699 31.7967 28.4743 31.7786C28.3788 31.7605 28.2923 31.7424 28.215 31.7108C28.1376 31.6836 28.0739 31.6519 28.0057 31.6248C27.9374 31.5977 27.8919 31.5569 27.8328 31.5298L28.033 31.1905C28.0694 31.2176 28.1103 31.2493 28.1558 31.2764C28.2013 31.3036 28.2605 31.3352 28.3287 31.3533C28.3879 31.3714 28.4607 31.3895 28.5289 31.4122C28.6062 31.4303 28.679 31.4303 28.7564 31.4303C28.8246 31.4303 28.8974 31.4212 28.9748 31.4031C29.0521 31.385 29.1158 31.3579 29.175 31.3172C29.2341 31.2764 29.2796 31.2312 29.316 31.1769C29.3524 31.1181 29.3751 31.0457 29.3751 30.9688C29.3751 30.8828 29.357 30.7969 29.316 30.7335C29.2751 30.6702 29.2205 30.6023 29.1522 30.5435C29.084 30.4847 29.0112 30.4394 28.9247 30.3806C28.8383 30.3354 28.7518 30.2856 28.6654 30.2313C28.579 30.1861 28.4925 30.1273 28.4061 30.0684C28.3196 30.0096 28.2423 29.9463 28.1786 29.8694C28.1103 29.7925 28.0557 29.7065 28.0057 29.6115C27.9693 29.5165 27.9374 29.4034 27.9374 29.2722C27.9374 29.1591 27.9556 29.046 28.0057 28.9419C28.0512 28.8378 28.1103 28.7519 28.1968 28.675C28.2832 28.5981 28.3879 28.5438 28.5107 28.494C28.6335 28.4488 28.7791 28.4261 28.9293 28.4261C29.1022 28.4261 29.2523 28.4442 29.3751 28.4849C29.498 28.5257 29.6026 28.5619 29.68 28.5981L29.6709 29.0324C29.5662 28.9645 29.4616 28.9193 29.3297 28.8831C29.2068 28.8469 29.0703 28.8152 28.9384 28.8152C28.861 28.8152 28.7882 28.8243 28.72 28.8424C28.6517 28.8605 28.5971 28.8786 28.538 28.9193C28.4925 28.9555 28.4425 28.9962 28.4152 29.0505C28.3879 29.0957 28.3697 29.1636 28.3697 29.2405C28.3697 29.3265 28.3879 29.4034 28.4379 29.4667C28.4743 29.5346 28.5335 29.5979 28.6017 29.6477C28.6699 29.7065 28.7427 29.7608 28.8292 29.8106C28.9156 29.8603 29.0021 29.9146 29.0976 29.9599C29.1932 30.0051 29.2796 30.0639 29.3661 30.1318C29.4525 30.1906 29.5298 30.2539 29.5935 30.3309C29.6982 30.4168 29.7573 30.5028 29.7937 30.5978C29.8301 30.6928 29.862 30.8059 29.862 30.9281C29.862 31.0593 29.8347 31.1859 29.7755 31.29V31.281ZM31.5818 31.946C31.5044 32.1632 31.4316 32.3351 31.3452 32.4663C31.2587 32.5975 31.1723 32.7016 31.0858 32.7694C30.9994 32.8464 30.9039 32.8916 30.8083 32.9097C30.7128 32.9278 30.6172 32.9459 30.5126 32.9459C30.4079 32.9459 30.3215 32.9368 30.2441 32.9187C30.1668 32.9007 30.1031 32.8826 30.0349 32.8509L30.1486 32.5116C30.1941 32.5387 30.2532 32.5568 30.3124 32.5704C30.3715 32.5794 30.4352 32.5885 30.5035 32.5885C30.5717 32.5885 30.6354 32.5704 30.7037 32.5432C30.7719 32.5161 30.8356 32.4663 30.8948 32.403C30.9539 32.3396 31.0085 32.2537 31.0676 32.1451C31.1268 32.041 31.1723 31.9189 31.2087 31.7651L30.1304 29.3989H30.599L31.4089 31.2448H31.4271L32.0458 29.3989H32.4826L31.5772 31.946H31.5818ZM34.3935 31.4257C34.348 31.5117 34.2797 31.5886 34.1933 31.6429C34.1068 31.7017 34.0113 31.7379 33.8976 31.7651C33.7838 31.7922 33.6701 31.8012 33.5336 31.8012C33.4471 31.8012 33.3607 31.7922 33.297 31.7832C33.2197 31.7741 33.156 31.756 33.0968 31.7379C33.0377 31.7198 32.9831 31.7017 32.9239 31.67C32.8784 31.6519 32.8284 31.6248 32.792 31.5931L32.9421 31.2538C32.9785 31.2719 33.0195 31.2991 33.0559 31.3217C33.1014 31.3398 33.1423 31.3579 33.1969 31.3805C33.2561 31.3986 33.3015 31.4076 33.3607 31.4257C33.4198 31.4348 33.4744 31.4438 33.5427 31.4438C33.6109 31.4438 33.6746 31.4348 33.7338 31.4257C33.7929 31.4076 33.8384 31.3895 33.8839 31.3579C33.9203 31.3307 33.9613 31.2991 33.9795 31.2538C33.9977 31.2176 34.0159 31.1678 34.0159 31.1226C34.0159 31.0547 33.9977 31.0005 33.9704 30.9507C33.9431 30.9009 33.9021 30.8647 33.8475 30.8285C33.802 30.7923 33.7429 30.7607 33.6746 30.7335C33.6064 30.7064 33.5427 30.6747 33.4744 30.6476C33.4062 30.6204 33.3425 30.5797 33.2743 30.5435C33.206 30.5073 33.1514 30.4575 33.1014 30.4123C33.0559 30.3535 33.0058 30.2992 32.9785 30.2223C32.9512 30.1454 32.933 30.0594 32.933 29.9553C32.933 29.8694 32.9512 29.7834 32.9785 29.6975C33.0149 29.6205 33.065 29.5482 33.1287 29.4893C33.1924 29.4305 33.2788 29.3853 33.388 29.3491C33.4926 29.3129 33.6064 29.3038 33.752 29.3038C33.8839 29.3038 33.9977 29.3129 34.1023 29.34C34.2069 29.3581 34.2934 29.3989 34.3798 29.426V29.806C34.3343 29.7879 34.2843 29.7698 34.2479 29.7472C34.2024 29.7291 34.1523 29.7201 34.1068 29.702C34.0614 29.6929 34.0022 29.6748 33.9567 29.6748C33.8976 29.6658 33.843 29.6658 33.7838 29.6658C33.7247 29.6658 33.6701 29.6748 33.62 29.6839C33.57 29.6929 33.5245 29.711 33.4881 29.7291C33.4517 29.7472 33.4198 29.7744 33.4016 29.8151C33.3834 29.8558 33.3743 29.892 33.3743 29.9372C33.3743 29.9961 33.3925 30.0504 33.4198 30.0865C33.4471 30.1227 33.4972 30.1635 33.5427 30.1997C33.5882 30.2358 33.6473 30.2675 33.7156 30.2947C33.7838 30.3218 33.8475 30.3535 33.9158 30.3897C33.984 30.4168 34.0477 30.4575 34.116 30.4937C34.1842 30.5299 34.2388 30.5797 34.2888 30.634C34.3571 30.7109 34.3935 30.7652 34.4208 30.8421C34.4481 30.919 34.4663 31.005 34.4663 31.1C34.4663 31.2221 34.439 31.3352 34.3889 31.4212L34.3935 31.4257ZM36.1542 31.747C36.0314 31.7922 35.9176 31.8148 35.813 31.8148C35.7174 31.8148 35.6401 31.8058 35.5764 31.7786C35.5127 31.7515 35.4536 31.7198 35.4126 31.6746C35.3671 31.6293 35.3353 31.5705 35.3171 31.5117C35.2989 31.4438 35.2898 31.3805 35.2898 31.3036V29.7698H34.8985V29.3989H35.2898V28.8695L35.7356 28.7293V29.4034H36.459L36.318 29.7653H35.7356V31.1588C35.7356 31.2538 35.7538 31.3307 35.7948 31.376C35.8357 31.4212 35.8903 31.4438 35.9677 31.4438C36.0041 31.4438 36.045 31.4348 36.0814 31.4257C36.1178 31.4167 36.1588 31.4076 36.1952 31.3895C36.2316 31.3714 36.2634 31.3624 36.2907 31.3443C36.3089 31.3171 36.3362 31.3081 36.359 31.2855L36.4909 31.5886C36.3863 31.6655 36.2816 31.7198 36.1588 31.7605L36.1542 31.747ZM38.9068 30.6566H37.3917C37.3917 30.7697 37.4008 30.8647 37.4372 30.9597C37.4645 31.0547 37.5146 31.1407 37.5783 31.204C37.6374 31.281 37.7102 31.3352 37.8058 31.376C37.9013 31.4167 38.006 31.4348 38.1197 31.4348C38.2243 31.4348 38.329 31.4167 38.4245 31.376C38.5292 31.3398 38.6156 31.2991 38.7021 31.2538L38.8249 31.5569C38.7112 31.6429 38.5974 31.6972 38.4518 31.7379C38.3199 31.7741 38.1743 31.7967 38.0424 31.7967C37.8422 31.7967 37.6784 31.7605 37.5373 31.6927C37.3963 31.6248 37.278 31.5298 37.187 31.4167C37.096 31.3036 37.0232 31.1724 36.9777 31.0185C36.9322 30.8692 36.9095 30.7154 36.9095 30.5435C36.9095 30.3716 36.9277 30.2223 36.9777 30.0684C37.0232 29.9282 37.0915 29.7925 37.1779 29.6884C37.2644 29.5844 37.369 29.4984 37.4918 29.4305C37.6147 29.3627 37.7512 29.3355 37.9013 29.3355C38.0515 29.3355 38.197 29.3627 38.3108 29.4215C38.4245 29.4803 38.5292 29.5617 38.6156 29.6658C38.693 29.7698 38.7567 29.901 38.834 30.0368C38.8795 30.1861 38.9022 30.358 38.9022 30.539V30.6521L38.9068 30.6566ZM42.9651 31.7651H42.5193V30.2404C42.5193 30.1635 42.5102 30.1001 42.5011 30.0323C42.492 29.9644 42.4738 29.9191 42.4419 29.8694C42.4146 29.8241 42.3737 29.7834 42.3282 29.7563C42.2827 29.7291 42.2235 29.7201 42.1371 29.7201C42.0597 29.7201 41.996 29.7291 41.9369 29.7472C41.8687 29.7653 41.8141 29.7925 41.7549 29.8241C41.6958 29.8513 41.6412 29.892 41.5911 29.9282L41.4501 30.0413C41.4501 30.0413 41.4592 30.0775 41.4592 30.1001V31.7651H41.0133V30.2494C41.0133 30.1725 41.0042 30.1092 40.9951 30.0413C40.986 29.9734 40.9678 29.9191 40.936 29.8694C40.9041 29.8196 40.8677 29.7834 40.8222 29.7563C40.7767 29.7291 40.7085 29.7201 40.6311 29.7201C40.5538 29.7201 40.4901 29.7291 40.431 29.7472C40.3627 29.7653 40.3081 29.7925 40.249 29.8241C40.1898 29.8558 40.1352 29.892 40.0852 29.9282L39.9441 30.0413V31.747H39.4983V29.3808H39.8713L39.9305 29.6567C40.0806 29.5436 40.2262 29.4577 40.3582 29.3989C40.4901 29.34 40.6357 29.3129 40.7585 29.3129C40.8996 29.3129 41.027 29.3491 41.1316 29.4169C41.2362 29.4848 41.3136 29.5798 41.35 29.6929C41.4182 29.6341 41.4819 29.5798 41.5593 29.5301C41.6366 29.4803 41.7003 29.4441 41.7777 29.4079C41.855 29.3808 41.9187 29.3491 41.9961 29.331C42.0734 29.3129 42.1371 29.3038 42.2053 29.3038C42.3009 29.3038 42.3964 29.3129 42.4829 29.34C42.5693 29.3672 42.6467 29.4079 42.7195 29.4622C42.815 29.5572 42.8696 29.6432 42.9105 29.7382C42.9469 29.8332 42.9697 29.9553 42.9697 30.1092V31.7651H42.9651ZM45.1081 31.4303C45.0626 31.5117 44.9943 31.5886 44.9079 31.6429C44.8214 31.6972 44.7259 31.7379 44.6121 31.7651C44.4984 31.7922 44.3847 31.8012 44.2482 31.8012C44.1617 31.8012 44.0753 31.7922 44.0116 31.7832C43.9342 31.7741 43.8705 31.756 43.8114 31.7379C43.7522 31.7198 43.6976 31.7017 43.6385 31.6746C43.593 31.6565 43.543 31.6293 43.5066 31.6022L43.6567 31.2674C43.6931 31.2855 43.734 31.3126 43.7704 31.3307C43.8159 31.3488 43.8569 31.3669 43.9115 31.385C43.9706 31.4031 44.0161 31.4122 44.0753 31.4303C44.1344 31.4393 44.189 31.4484 44.2573 31.4484C44.3255 31.4484 44.3892 31.4393 44.4483 31.4303C44.5075 31.4122 44.553 31.3941 44.5985 31.3669C44.6349 31.3398 44.6758 31.3126 44.694 31.2629C44.7122 31.2267 44.7304 31.1814 44.7304 31.1317C44.7304 31.0683 44.7122 31.0095 44.6849 30.9643C44.6576 30.919 44.6167 30.8828 44.5621 30.8421C44.5166 30.8059 44.4574 30.7788 44.3892 30.7471C44.321 30.7199 44.2573 30.6928 44.189 30.6657C44.1208 30.6385 44.0571 30.6023 43.9888 30.5616C43.9206 30.5254 43.866 30.4802 43.8159 30.4304C43.7704 30.3761 43.7204 30.3173 43.6931 30.2449C43.6658 30.1725 43.6476 30.0865 43.6476 29.9825C43.6476 29.901 43.6658 29.8151 43.6931 29.7337C43.7295 29.6613 43.7795 29.5843 43.8432 29.5301C43.9069 29.4758 43.9934 29.426 44.1026 29.3898C44.2072 29.3536 44.321 29.3446 44.4665 29.3446C44.5985 29.3446 44.7122 29.3536 44.8169 29.3808C44.9215 29.3989 45.008 29.435 45.0944 29.4622V29.8332C45.0489 29.8151 44.9989 29.797 44.9625 29.7789C44.917 29.7608 44.8669 29.7517 44.8214 29.7337C44.7759 29.7156 44.7168 29.7065 44.6713 29.7065C44.6121 29.6975 44.5575 29.6975 44.4984 29.6975C44.4392 29.6975 44.3847 29.7065 44.3346 29.7156C44.2891 29.7246 44.2391 29.7427 44.2027 29.7608C44.1663 29.7789 44.1344 29.806 44.1162 29.8422C44.098 29.8784 44.0889 29.9146 44.0889 29.9644C44.0889 30.0187 44.1071 30.0775 44.1344 30.1137C44.1617 30.1499 44.2118 30.1861 44.2573 30.2268C44.3028 30.2675 44.3619 30.2901 44.4301 30.3218C44.4984 30.349 44.5621 30.3761 44.6303 30.4168C44.6986 30.444 44.7623 30.4802 44.8305 30.5209C44.8988 30.5616 44.9534 30.6023 45.0034 30.6611C45.0489 30.7154 45.099 30.7742 45.1263 30.8466C45.1627 30.9281 45.1854 31.014 45.1854 31.1181C45.1854 31.2402 45.1581 31.3488 45.1081 31.4348V31.4303Z"
            fill="white"></path>
        <path
            d="M20.6989 30.6386L20.2712 30.6567C20.0801 30.6657 19.9391 30.7019 19.8526 30.7698C19.7662 30.8376 19.7207 30.9191 19.7207 31.0457C19.7207 31.1046 19.7298 31.1589 19.748 31.2086C19.7662 31.2539 19.7935 31.2946 19.8344 31.3308C19.8754 31.367 19.9118 31.3986 19.9664 31.4167C20.0255 31.4348 20.0892 31.4439 20.1575 31.4439C20.2348 31.4439 20.2894 31.4439 20.3486 31.4258C20.4077 31.4077 20.4532 31.3896 20.4987 31.367C20.5442 31.3443 20.5851 31.3217 20.6215 31.2901C20.6488 31.2629 20.6807 31.2448 20.708 31.2131H20.6989V30.634V30.6386Z"
            fill="white"></path>
        <path
            d="M13.4011 29.2857C13.3829 29.2178 13.3647 29.1636 13.3556 29.1047H13.3465C13.3283 29.1726 13.3101 29.2269 13.2874 29.2948C13.2646 29.3626 13.2419 29.435 13.21 29.5119L12.8506 30.5073H13.8197L13.4784 29.5119C13.4511 29.426 13.4193 29.349 13.4011 29.2857Z"
            fill="white"></path>
        <path
            d="M25.2891 29.9373C25.23 29.8604 25.1663 29.7971 25.0798 29.7563C24.9934 29.7111 24.8979 29.6885 24.7932 29.6885C24.6886 29.6885 24.6021 29.7156 24.5157 29.7563C24.4383 29.8016 24.3746 29.8604 24.3155 29.9373C24.2563 30.0142 24.2199 30.1092 24.1926 30.2133C24.1653 30.3174 24.1562 30.4305 24.1562 30.5617C24.1562 30.6929 24.1744 30.8195 24.2017 30.9236C24.229 31.0277 24.2791 31.1227 24.3337 31.1996C24.3928 31.2765 24.4565 31.3398 24.543 31.3806C24.6203 31.4258 24.7159 31.4484 24.8205 31.4484C24.9252 31.4484 25.0207 31.4213 25.098 31.3806C25.1754 31.3353 25.2391 31.2765 25.2982 31.1996C25.3437 31.1227 25.3938 31.0277 25.4211 30.9236C25.4484 30.8195 25.4666 30.7064 25.4666 30.5752C25.4666 30.444 25.4484 30.3174 25.4211 30.2133C25.3847 30.1092 25.3437 30.0142 25.2891 29.9373Z"
            fill="white"></path>
        <path
            d="M49.0617 17.776H49.8989V23.4585H49.2892L46.3183 19.3957V23.4585H45.4811V17.776H46.1863L49.0617 21.7076V17.776ZM42.401 17.7308L44.6394 23.4585H43.6794L43.1835 22.1058H40.9633L40.4673 23.4585H39.5438L41.8095 17.7308H42.401ZM42.906 21.3774L42.0688 19.0835L41.2317 21.3774H42.906ZM37.4008 17.776L35.7447 21.3457L34.0295 17.776H33.256L32.6555 23.4585H33.5609L33.9249 19.4636L35.5446 22.8342H35.8949L37.4964 19.3776L37.8786 23.4676H38.7657L38.1652 17.7851H37.4054V17.776H37.4008ZM29.0612 19.0926C29.0612 18.6175 29.4525 18.3551 30.0804 18.3551C30.6036 18.3551 31.1177 18.613 31.327 18.7442L31.6318 18.0611C31.4589 17.9479 30.822 17.6177 30.0622 17.6177C28.902 17.6177 28.1558 18.2239 28.1558 19.1605C28.1558 21.1602 30.9948 20.4001 30.9948 21.8524C30.9948 22.4406 30.4898 22.7256 29.7482 22.7256H28.6836L28.3424 23.4721H29.771C31.1313 23.4721 31.9048 22.7618 31.9048 21.7936C31.923 19.6536 29.0658 20.3142 29.0658 19.0926H29.0612ZM25.7354 17.776H24.8573V23.4585H27.6554L27.9966 22.712H25.7308V17.776H25.7354ZM21.3358 20.8435H23.3559V20.106H21.3358V18.5044H23.6789V17.767H20.4714V23.4495H23.7654V22.712H21.3358V20.848V20.8435ZM15.403 18.5135H17.0045V23.4585H17.8826V18.5135H19.4841V17.767H15.4075V18.5135H15.403ZM14.5931 19.4636C14.5931 18.5813 14.0699 17.776 12.7914 17.776H10.9989V23.4585H11.8542V18.4501H12.5776C13.2828 18.4501 13.6923 18.8845 13.6923 19.4455C13.6923 20.3051 13.0735 20.6082 12.2364 20.6082H12.1226L13.9698 23.4585H15.0345L13.4148 21.0426C14.0608 20.8254 14.584 20.3051 14.584 19.4591L14.5931 19.4636ZM7.28629 20.8435H9.31547V20.106H7.29539V18.5044H9.6385V17.767H6.43095V23.4495H9.72494V22.712H7.29539L7.28629 20.848V20.8435ZM5.30717 21.7845C5.30717 22.6758 4.68841 23.4902 3.15516 23.4902H1.32617V17.7489H3.17335C4.51552 17.7489 5.03874 18.4139 5.03874 19.1695C5.03874 19.7577 4.65656 20.1468 4.28803 20.3458C4.74301 20.5177 5.30717 20.8933 5.30717 21.7845ZM4.41998 21.8388C4.41998 21.0607 3.75117 20.7485 2.90492 20.7485H2.63649L2.94132 20.0744C3.38719 20.0744 4.16064 19.9974 4.16064 19.1921C4.16064 18.8121 3.91496 18.4366 3.08236 18.4366H2.16787V22.7935H3.12786C3.87856 22.7844 4.41543 22.4451 4.41543 21.8388H4.41998ZM54.9536 17.776V21.7076L52.0782 17.776H51.373V23.4585H52.2101V19.3957L55.1811 23.4585H55.7908V17.776H54.9536Z"
            fill="white"></path>
        <path
            d="M43.0972 3.15343H45.5177V5.27532H43.0972V9.92628C43.0972 10.8945 43.4612 11.3288 44.3939 11.3288H45.2037V13.4416H43.3474C41.3274 13.4416 40.4811 12.288 40.4811 10.7135V5.27532H38.9479V3.15343H40.4811V0.787226L43.1018 0V3.15343H43.0972ZM37.3054 10.7226C37.3054 12.202 37.3509 12.9576 37.5056 13.4416H35.0761L34.8577 12.5323C34.1798 13.1385 33.238 13.6588 31.8685 13.6588C29.9622 13.6588 28.479 12.3151 28.479 10.2973C28.479 8.16633 30.1669 6.95383 32.8012 6.86786L34.6666 6.8V6.57379C34.6666 5.33413 33.7612 5.031 32.6647 5.031C31.732 5.031 29.7484 5.12601 29.7484 5.12601V3.167C29.7484 3.167 31.5955 3.07199 33.1879 3.07199C35.7403 3.07199 37.2918 4.04019 37.2918 6.73666V10.7226H37.3009H37.3054ZM34.6711 8.60067L33.1561 8.64591C31.7366 8.6821 31.0996 9.23407 31.0996 10.0937C31.0996 10.9533 31.6911 11.5912 32.7876 11.5912C33.7021 11.5912 34.3299 11.2428 34.6711 10.9397V8.60067ZM23.0011 9.83127L20.5898 3.15343H17.6871L21.8956 13.4281H23.8883L28.1833 3.15343H25.4898L23.0057 9.83127H23.0011ZM13.5332 3.15343H11.2947V13.4281H13.9518V6.26613C14.5614 5.69607 15.2939 5.59202 15.9127 5.59202C16.122 5.59202 16.3813 5.61916 16.6543 5.70512V3.13985C15.6715 3.13985 14.8526 3.28011 13.8244 4.23021L13.5286 3.1489L13.5332 3.15343ZM9.06082 10.7226C9.06082 12.202 9.10631 12.9576 9.261 13.4416H6.83146L6.61307 12.5323C5.93516 13.1385 4.99337 13.6588 3.62391 13.6588C1.71758 13.6588 0.234375 12.3151 0.234375 10.2973C0.234375 8.16633 1.92232 6.95383 4.5566 6.86786L6.42198 6.8V6.57379C6.42198 5.33413 5.51659 5.031 4.42011 5.031C3.48742 5.031 1.50374 5.12601 1.50374 5.12601V3.167C1.50374 3.167 3.35093 3.07199 4.94333 3.07199C7.49571 3.07199 9.04717 4.04019 9.04717 6.73666V10.7226H9.05627H9.06082ZM6.42198 8.60067L4.90693 8.64591C3.48742 8.6821 2.85046 9.23407 2.85046 10.0937C2.85046 10.9533 3.44192 11.5912 4.5384 11.5912C5.45289 11.5912 6.08075 11.2428 6.42198 10.9397V8.60067ZM56.8965 8.27944C56.8965 11.3876 54.8855 13.7629 51.6962 13.7629C48.5068 13.7629 46.5322 11.3967 46.5322 8.3654C46.5322 4.85003 48.9026 2.8322 51.7144 2.8322C54.5261 2.8322 56.8965 4.78217 56.8965 8.27944ZM54.2031 8.29754C54.2031 6.3159 53.2886 4.88623 51.6689 4.88623C50.0492 4.88623 49.2029 6.38377 49.2029 8.29754C49.2029 10.2113 50.1447 11.745 51.7371 11.745C53.3295 11.745 54.2031 10.2294 54.2031 8.29754Z"
            fill="white"></path>
    </g>
    <defs>
        <clipPath id="clip0_7035_3621">
            <rect width="56.6667" height="34" fill="white" transform="translate(0.229492)"></rect>
        </clipPath>
    </defs>
</svg>