<svg width="71" height="30" viewBox="0 0 71 30" fill="none" xmlns="http://www.w3.org/2000/svg">
    <path
        d="M6.19961 0H0.302734V29.4403H6.19961V0ZM21.6954 29.4381H27.5923V9.42706H21.6954V29.4381ZM36.7814 29.4381H43.5707L50.36 9.42706H44.4632C44.4632 9.42706 41.3098 20.2777 40.349 23.7307H40.2807C39.3199 20.2777 36.0982 9.42706 36.0982 9.42706H29.8576L36.7814 29.4381ZM70.9264 9.42706H65.2344V12.175C64.2736 10.0617 62.0127 8.86294 59.3375 8.86294C54.5381 8.86294 50.6972 12.8801 50.6972 19.4315C50.6972 25.9828 54.3993 30 59.0621 30C62.3543 30 64.2736 28.3803 65.3027 26.5469V29.4359H70.9925L70.9264 9.42706ZM65.1 19.9273C65.1 23.5919 62.9052 25.3526 60.7104 25.3526C58.3107 25.3526 56.7329 22.8162 56.7329 19.4337C56.7329 16.0511 58.379 13.5148 60.9153 13.5148C62.9713 13.5148 65.0978 15.2755 65.0978 18.9401V19.9273H65.1ZM7.70688 18.9401C17.1692 18.9401 19.364 10.8374 19.364 9.42706H18.542C9.07973 9.42706 6.88493 17.5297 6.88493 18.9401H7.70688ZM6.88493 19.6452C6.88493 21.1238 8.53103 29.3676 18.6787 29.3676H19.5006C19.5006 27.8889 17.8545 19.6452 7.70688 19.6452H6.88493ZM28.2093 3.93125C28.2093 2.02953 26.7703 0.407668 24.9171 0.407668C24.8488 0.407668 24.7805 0.407668 24.7122 0.407668C22.8611 0.337153 21.2833 1.81578 21.215 3.7197C21.215 3.79022 21.215 3.86073 21.215 3.93125C21.215 5.83297 22.654 7.45483 24.5072 7.45483C24.5755 7.45483 24.6439 7.45483 24.7122 7.45483C26.5632 7.52534 28.141 6.04672 28.2093 4.1428C28.2093 4.07228 28.2093 4.00176 28.2093 3.93125Z"
        fill="white"></path>
</svg>