<svg width="19" height="19" viewBox="0 0 19 19" fill="none" xmlns="http://www.w3.org/2000/svg">
<path d="M5.56692 2.2075C5.55302 2.2157 5.54165 2.23755 5.51765 2.24667C5.84782 2.69041 5.62496 3.24131 5.80233 3.73206L5.80862 3.7508C6.09859 4.03772 5.83189 4.32183 6.25952 4.54769C6.25952 4.54769 6.12068 4.54332 6.11815 4.54201C6.46779 5.57026 7.33686 8.10121 7.33686 8.10121C7.45189 7.97276 7.00494 8.06727 6.71235 7.85926C6.71235 7.85926 6.66057 7.90329 6.66064 7.84774C5.46233 8.18387 4.406 8.00108 3.1894 7.82434C2.60513 7.68982 1.79685 9.05056 2.97975 8.92873C2.98478 8.9437 3.00371 8.9628 3.00495 8.98506C3.49241 8.8005 3.93876 9.19363 4.42092 9.21628L4.43984 9.21687L5.24388 9.24972C5.66669 9.29395 6.13992 9.40149 6.63205 9.52199C6.61311 9.52756 6.59416 9.53313 6.57522 9.53871C6.57522 9.53871 6.17932 10.1879 6.01859 10.5272C6.01859 10.5272 5.29872 10.8315 5.25399 11.2745C4.78026 11.5743 3.40254 12.0517 4.07069 12.7394C4.33559 12.8774 4.42733 13.2062 4.73199 12.8431C4.74586 12.8534 4.76856 12.859 4.78495 12.8768C5.05431 12.4768 5.73344 12.4476 6.08728 12.1193L6.1012 12.1049C6.24555 11.7416 6.70019 11.5462 6.70271 11.5475C6.99839 11.3001 7.34962 11.0446 7.71854 10.7797C7.693 11.0135 7.68642 11.2292 7.70515 11.3965C7.84341 11.87 5.4676 16.1166 7.08376 15.748C7.45465 14.9068 7.62882 13.9198 8.22284 13.309C8.35791 13.3084 8.34701 12.9352 8.33856 12.6313C8.50428 12.3378 8.65086 12.2103 8.89121 11.792C9.24507 12.4674 10.6485 15.6843 11.1854 14.2903C10.9952 14.0213 10.8857 13.7698 10.9114 13.3879C10.8548 13.1886 10.056 12.0066 10.0991 11.8376C10.2811 11.6669 9.05396 10.8145 9.66728 10.9364C9.6751 10.7305 9.6514 10.5174 9.60749 10.3C10.2131 10.5413 10.9866 10.7374 11.4575 10.7141C11.5749 10.6425 13.9442 11.6976 15.0463 11.6139C15.6837 11.6032 16.1923 11.6983 15.8864 11.0233C15.6238 11.0717 15.0312 10.4975 14.9464 10.6973C14.8103 10.5399 13.427 10.3628 13.3363 10.2229C13.3239 10.0929 12.1423 10.1321 12.3774 9.94569C11.8339 9.44336 10.9885 9.18209 10.0838 8.96089C10.6547 8.64071 11.3281 8.11144 11.5925 7.70256C12.1522 7.29314 13.5064 6.44839 14.1257 5.81989C14.7371 5.44667 14.6463 5.34382 14.3781 4.84896L14.3743 4.83772C14.3176 4.73717 14.3844 4.84299 14.0652 4.66131C14.0829 4.70754 14.065 4.85881 14.1395 4.8698C14.0523 4.93247 13.4945 4.79633 13.6419 5.01826C13.6407 5.0392 13.1937 5.109 13.0268 5.34938C12.2609 6.11767 11.3305 6.22279 10.2755 7.00416C10.3451 6.90143 10.559 4.39732 11.1333 3.39336C11.4596 2.92101 10.5803 1.50565 10.1773 2.72859C10.1597 2.72556 10.1369 2.73843 10.113 2.72903C10.0757 3.2994 9.55645 3.63728 9.41695 4.16369L9.41188 4.18574C9.49216 4.59194 9.10324 4.69197 9.34507 5.11439C9.34507 5.11439 9.22777 5.03786 9.22651 5.03412C9.04002 5.78618 8.71581 6.65485 8.48633 7.4648C8.19064 6.7086 7.97953 5.95015 8.07502 5.28657L8.0308 5.30982C8.03966 5.29282 8.00816 5.261 8.0612 5.23922C7.65263 4.90904 7.59235 4.64294 7.32638 4.3469C7.32638 4.3469 7.29331 3.54841 6.89347 3.31232L6.71191 2.13385C6.67097 1.5536 5.08364 1.04786 5.56188 2.19251L5.56692 2.2075Z" fill="#101214"/>
</svg>
