<svg                        
    width="49"
    height="51"
    viewBox="0 0 49 51"
    fill="none"
    xmlns="http://www.w3.org/2000/svg"

>
    <g id="Gestural Line/star 3">
        <path
            id="Vector"
            d="M47.4104 41.8537C47.4404 41.8037 47.4404 41.7137 47.5004 41.6437C45.7504 40.7637 45.5504 38.6038 44.2005 37.3138L44.1504 37.2637C42.7804 36.8237 43.1505 35.4538 41.4505 35.4438C41.4505 35.4438 41.8904 35.2237 41.9004 35.2237C39.1404 32.4837 32.3204 25.7537 32.3204 25.7537C32.1704 26.3637 33.4104 25.3037 34.6604 25.4837C34.6604 25.4837 34.7503 25.2538 34.8403 25.4338C38.0303 22.3238 41.6205 21.1338 45.7005 19.6538C47.7405 19.1038 48.0504 13.3337 44.5604 15.7237C44.5204 15.6837 44.4304 15.6538 44.3904 15.5838C43.1704 17.0038 41.1404 16.4837 39.6004 17.2237L39.5404 17.2537L36.9804 18.5037C35.5904 19.0737 33.9403 19.5238 32.2103 19.9638C32.2603 19.9138 32.3104 19.8638 32.3604 19.8138C32.3604 19.8138 32.5404 17.0438 32.4904 15.6738C32.4904 15.6738 34.2404 13.4738 33.6604 11.9638C34.6504 10.1938 38.1703 6.3237 34.9703 5.2237C33.9203 5.2237 33.1004 4.31373 32.7404 6.00373C32.6804 5.99373 32.6004 6.01371 32.5204 5.98371C32.3304 7.73371 30.2604 8.97374 29.6904 10.6337L29.6704 10.7038C29.8104 12.1238 28.7105 13.5238 28.7005 13.5238C28.1805 14.8238 27.5004 16.2437 26.7804 17.7237C26.4804 16.9237 26.1504 16.2138 25.8204 15.7038C24.6204 14.4038 25.1304 -3.35621 20.6904 0.56379C20.9004 3.91379 21.9604 7.40374 21.1004 10.3837C20.6804 10.6137 21.3203 11.8038 21.8403 12.7738C21.8003 14.0037 21.5504 14.6638 21.4804 16.4238C19.2804 14.8338 9.6804 6.7838 10.2704 12.2038C11.3004 12.7538 12.0503 13.3838 12.5903 14.6638C13.0903 15.2138 17.5004 17.6938 17.6404 18.3138C17.3504 19.1738 22.5605 19.8637 20.4505 20.5037C20.7605 21.1837 21.1804 21.8338 21.6704 22.4638C19.3904 22.7038 16.6604 23.3737 15.2304 24.2437C14.9804 24.6737 5.88033 25.2537 2.58033 27.3837C0.610334 28.4937 -1.12958 29.0438 0.920422 30.7138C1.66042 30.1138 4.44038 30.9738 4.38038 30.1838C5.06038 30.4638 9.66042 28.7037 10.1704 29.0037C10.4204 29.4037 14.0404 27.2838 13.6104 28.2838C16.1204 28.9938 19.1804 28.4137 22.3604 27.6037C21.1004 29.6037 19.8605 32.4537 19.7005 34.2237C18.6205 36.4937 15.7704 41.5138 14.8604 44.5938C13.5604 46.8338 14.0104 47.0138 15.6504 48.1638L15.6804 48.1938C16.0204 48.4238 15.6404 48.1937 16.9304 48.2437C16.8004 48.1237 16.6104 47.6038 16.3604 47.6938C16.5304 47.3438 18.4904 46.8437 17.6704 46.3737C17.6404 46.3037 18.9204 45.3237 19.0504 44.2637C20.1904 40.4837 22.9204 38.5737 24.9404 34.2637C24.8904 34.7137 28.2904 43.1838 28.1304 47.4038C27.8804 49.4838 32.9204 52.5838 32.1904 47.9438C32.2504 47.9238 32.3004 47.8438 32.3904 47.8338C31.5804 45.9238 32.6504 43.9537 32.2304 42.0137L32.2103 41.9338C31.3003 40.7538 32.3504 39.7738 30.9104 38.8138C30.9104 38.8138 31.4004 38.8637 31.4104 38.8737C30.7704 36.1237 30.3704 32.7637 29.7704 29.7537C31.9204 31.7037 33.8103 33.8037 34.5903 36.1137L34.6904 35.9638C34.6904 36.0338 34.8403 36.0837 34.7103 36.2437C36.5203 36.6237 37.1404 37.3837 38.4505 37.8937C38.4505 37.8937 39.8504 40.4237 41.4804 40.5137L43.9603 44.0238C45.0303 45.8338 50.8004 44.7937 47.4505 41.8937L47.4104 41.8537Z"
            fill="#101214"
        />
    </g>
</svg>