<svg width="64" height="79" viewBox="0 0 64 79" fill="none" xmlns="http://www.w3.org/2000/svg">
<path d="M52.8719 26.5076C49.8698 25.9143 46.2404 27.7104 45.4435 24.6954C46.406 24.1787 45.7946 15.1779 44.5677 19.9891C44.7807 20.09 45.0648 20.0052 44.9425 20.2151C43.7077 20.2716 45.0806 21.9265 44.5322 22.2292C43.7669 21.8296 45.0845 24.0092 44.3152 23.4603C43.8418 24.2595 43.7945 25.321 43.8418 26.439C44.2837 26.7862 32.1529 25.6479 37.3563 27.9688C37.7232 26.7619 37.4155 28.7558 39.1394 27.5894C40.7569 28.2836 41.8299 28.5581 43.9444 28.55C43.0844 31.0727 45.4277 41.3247 45.9248 33.7688C46.2877 32.2351 44.5795 26.7619 48.3982 28.8446C49.2504 27.7912 55.8621 28.4531 52.864 26.5036L52.8719 26.5076Z" fill="white"/>
<path d="M28.3791 7.92873C25.377 7.3354 21.7476 9.13154 20.9508 6.11646C21.9133 5.59982 21.3019 -3.40099 20.075 1.41022C20.288 1.51113 20.572 1.42634 20.4497 1.63623C19.215 1.69273 20.5878 3.34759 20.0395 3.65031C19.2742 3.25072 20.5918 5.43032 19.8225 4.88139C19.3491 5.68057 19.3018 6.7421 19.3491 7.86015C19.791 8.20726 7.65623 7.06901 12.8636 9.38985C13.2305 8.18301 12.9228 10.1769 14.6467 9.01047C16.2641 9.7047 17.3372 9.97917 19.4517 9.9711C18.7337 12.3969 20.6391 22.5521 21.5819 15.2223C21.5109 14.0114 20.2486 8.10231 23.9095 10.2657C24.7616 9.21227 31.3733 9.87425 28.3752 7.92474L28.3791 7.92873Z" fill="white"/>
<path d="M21.0256 45.6314C18.0235 45.0381 14.3941 46.8342 13.5972 43.8191C14.5598 43.3025 13.9484 34.3016 12.7215 39.1129C12.9345 39.2138 13.2185 39.129 13.0962 39.3389C11.8614 39.3954 13.2343 41.0503 12.686 41.353C11.9207 40.9534 13.2383 43.133 12.469 42.5841C11.9956 43.3832 11.9483 44.4448 11.9956 45.5628C12.4374 45.9099 0.302714 44.7717 5.51007 47.0925C5.87695 45.8857 5.56925 47.8796 7.2932 46.7132C8.91063 47.4074 9.98368 47.6819 12.0982 47.6738C11.2382 50.1964 13.5814 60.4485 14.0785 52.8926C14.4415 51.3589 12.7333 45.8857 16.552 47.9684C17.4041 46.915 24.0159 47.5769 21.0177 45.6274L21.0256 45.6314Z" fill="#101214"/>
<path d="M58.7482 59.4087C56.5627 58.3956 51.4816 61.0958 52.0616 56.886C51.5329 58.4924 53.8486 48.7408 51.9392 50.1373C51.7893 49.9476 51.1818 51.5056 51.383 51.5541C51.6157 53.2009 50.0969 56.6155 49.947 59.231C49.9352 59.1422 36.542 58.9445 42.5502 60.6034C43.6627 60.7406 52.1562 59.8446 49.1462 64.8616C49.9392 76.6717 51.8327 68.2924 51.7301 61.1685C52.9886 61.4389 62.0699 61.2976 58.7443 59.4087H58.7482Z" fill="#101214"/>
</svg>
